<?xml version="1.0" standalone="no"?>
<!DOCTYPE svg PUBLIC "-//W3C//DTD SVG 20010904//EN"
 "http://www.w3.org/TR/2001/REC-SVG-20010904/DTD/svg10.dtd">
<svg version="1.0" xmlns="http://www.w3.org/2000/svg"
 width="268.000000pt" height="268.000000pt" viewBox="0 0 268.000000 268.000000"
 preserveAspectRatio="xMidYMid meet">
<metadata>
Created by potrace 1.14, written by Peter Selinger 2001-2017
</metadata>
<g transform="translate(0.000000,268.000000) scale(0.100000,-0.100000)"
fill="#000000" stroke="none">
<path d="M1160 2625 c-137 -19 -259 -57 -386 -120 -325 -159 -561 -433 -668
-773 -75 -239 -75 -544 0 -784 53 -170 160 -354 282 -489 158 -173 392 -313
623 -373 449 -116 928 13 1254 339 323 323 450 806 331 1260 -65 248 -231 502
-433 663 -290 231 -640 327 -1003 277z m340 -20 c306 -41 564 -173 773 -394
387 -412 457 -1036 171 -1514 -236 -393 -648 -629 -1099 -630 -605 -1 -1123
422 -1252 1023 -14 64 -18 128 -18 260 1 155 4 187 27 281 64 255 171 441 355
620 209 203 436 314 723 354 126 17 194 17 320 0z"/>
<path d="M1326 2391 l6 -48 -46 -7 c-25 -4 -50 -4 -56 -1 -5 3 -10 26 -10 51
0 33 -4 44 -16 44 -12 0 -14 -8 -9 -47 10 -74 9 -73 69 -73 82 0 86 3 86 71 0
46 -3 59 -15 59 -13 0 -15 -9 -9 -49z"/>
<path d="M1446 2422 c-3 -6 -9 -31 -12 -56 -6 -42 -5 -46 17 -54 41 -16 117
-24 123 -13 7 11 -9 16 -72 26 -41 7 -43 8 -40 38 l3 32 63 -2 c57 -3 81 8 49
20 -32 12 -125 18 -131 9z"/>
<path d="M970 2361 c0 -22 20 -83 31 -95 13 -14 139 23 139 41 0 9 -6 13 -14
10 -43 -17 -100 -27 -106 -20 -4 4 -13 25 -20 46 -12 39 -30 50 -30 18z"/>
<path d="M1680 2370 c0 -5 16 -17 37 -25 43 -18 40 -23 -24 -39 -26 -7 -48
-18 -48 -25 0 -18 116 -64 129 -51 6 6 -6 16 -35 29 -47 20 -46 22 29 41 23 6
42 17 42 24 0 7 -25 23 -56 35 -63 24 -74 25 -74 11z"/>
<path d="M872 2331 c-7 -4 -16 -21 -21 -37 -7 -28 -10 -29 -56 -26 -57 5 -54
-12 5 -28 22 -6 44 -20 50 -30 17 -32 32 -24 25 14 -4 18 -2 50 4 72 12 42 11
46 -7 35z"/>
<path d="M629 2174 c-29 -26 -56 -48 -58 -49 -1 -2 0 -9 4 -15 4 -7 15 -5 32
8 l26 19 33 -36 c18 -20 36 -32 40 -28 5 4 4 14 -1 21 -6 7 -19 26 -29 41
l-20 28 24 19 c15 12 20 22 14 28 -7 7 -30 -6 -65 -36z"/>
<path d="M1997 2183 c-16 -16 -4 -52 28 -83 51 -50 31 -58 -23 -9 -54 51 -72
36 -21 -18 41 -42 63 -55 82 -47 32 12 27 45 -14 88 -51 57 -39 66 20 15 56
-50 68 -33 15 22 -35 36 -71 49 -87 32z"/>
<path d="M1235 2124 c-11 -2 -44 -9 -73 -15 -30 -6 -84 -23 -122 -39 -322
-133 -519 -467 -480 -814 38 -331 255 -586 577 -678 102 -29 304 -31 403 -4
284 77 504 302 571 584 30 124 23 312 -15 427 -68 202 -201 358 -385 454 -121
62 -198 82 -336 86 -66 2 -129 2 -140 -1z m354 -239 c70 -17 86 -27 102 -59
10 -20 10 -20 -8 1 -26 31 -101 52 -201 57 l-87 5 95 -13 c163 -23 162 -22
218 -150 19 -44 38 -73 51 -78 12 -4 21 -12 21 -18 0 -6 -4 -8 -10 -5 -5 3
-10 0 -10 -8 0 -13 -80 -87 -94 -87 -15 0 -2 24 34 63 l39 43 -32 1 c-18 0
-45 4 -62 7 -27 6 -21 1 14 -10 8 -2 12 -7 9 -10 -3 -2 -27 3 -52 11 -33 11
-51 13 -60 6 -7 -6 -23 -7 -36 -4 -22 6 -23 7 -4 14 11 5 -7 7 -46 7 -44 -1
-52 -3 -24 -5 34 -3 41 -7 37 -21 -4 -15 -14 -17 -83 -11 -43 3 -117 3 -164 0
-73 -5 -85 -4 -83 9 1 9 17 18 37 21 26 5 18 6 -30 7 -42 0 -56 -3 -40 -7 l25
-7 -29 -8 c-20 -5 -32 -3 -37 6 -6 10 -18 9 -56 -5 -55 -20 -88 -23 -63 -7 8
5 11 10 5 10 -5 0 -17 -4 -25 -10 -9 -6 -17 -5 -22 3 -4 6 -10 9 -13 5 -4 -3
10 -22 29 -42 34 -34 51 -76 24 -60 -39 23 -78 58 -83 75 -4 11 -11 17 -16 14
-5 -4 -9 -1 -9 4 0 6 4 11 10 11 5 0 7 6 4 13 -2 7 16 54 40 104 53 108 66
117 194 138 114 19 400 13 491 -10z m153 -150 c17 -37 29 -68 27 -70 -3 -2
-18 28 -36 66 -17 38 -29 69 -27 69 3 0 19 -29 36 -65z m106 -65 c56 0 51 -9
-6 -12 -31 -1 -42 -6 -42 -17 -1 -9 -7 2 -15 24 -18 50 -18 56 2 28 12 -18 25
-23 61 -23z m-1002 -11 c-9 -19 -15 -26 -16 -16 0 13 -9 17 -39 17 -22 0 -43
5 -46 11 -5 7 7 8 37 4 34 -5 47 -3 57 9 20 24 23 13 7 -25z m80 -144 c18 -28
13 -54 -17 -81 -21 -19 -21 -19 -18 6 3 17 0 24 -10 22 -21 -4 -71 8 -71 18 0
5 16 12 37 16 29 5 39 3 49 -11 8 -10 17 -15 21 -11 4 4 1 11 -7 17 -13 7 -13
10 -1 18 11 7 10 11 -5 20 -11 6 -13 11 -7 11 7 0 20 -11 29 -25z m-229 -11
c-11 -11 33 -81 58 -92 14 -6 25 -18 25 -27 0 -17 -16 -21 -22 -5 -1 5 -19 -5
-38 -21 l-35 -31 -3 78 c-3 77 1 104 14 104 4 0 5 -3 1 -6z m1081 -5 c4 -3 21
-6 37 -8 8 0 15 -7 15 -14 0 -8 -10 -13 -22 -12 -13 1 -28 -5 -35 -14 -7 -9
-13 -11 -13 -5 0 7 -7 14 -15 17 -11 5 -12 1 -5 -19 9 -22 8 -24 -9 -15 -20
11 -31 32 -31 61 0 16 6 18 38 15 20 -2 38 -5 40 -6z m182 -96 c0 -73 -2 -82
-20 -88 -11 -3 -25 -3 -32 2 -14 9 -170 11 -178 3 -3 -3 -36 0 -75 6 -66 12
-59 12 106 11 l176 -2 -16 22 c-9 11 -18 19 -20 17 -2 -2 -10 1 -18 7 -9 9
-13 8 -13 0 0 -6 -4 -11 -10 -11 -20 0 -9 27 15 40 25 13 47 43 61 83 13 36
24 -6 24 -90z m-630 87 c0 -5 -7 -10 -15 -10 -8 0 -15 5 -15 10 0 6 7 10 15
10 8 0 15 -4 15 -10z m-98 -37 c-40 -2 -103 -2 -140 0 -37 2 -4 3 73 3 77 0
107 -2 67 -3z m306 -10 c-38 -2 -98 -2 -135 0 -38 2 -7 3 67 3 74 0 105 -1 68
-3z m-136 -100 c-51 -2 -132 -2 -180 0 -48 1 -6 3 93 3 99 0 138 -2 87 -3z
m-406 -10 c-3 -4 -14 -8 -24 -9 -9 -2 -29 -5 -44 -8 -16 -3 -28 -1 -28 4 0 6
-28 10 -65 9 -37 -1 -65 -6 -65 -12 0 -6 -3 -8 -6 -4 -19 19 17 27 123 27 64
0 113 -3 109 -7z m-268 -25 c15 -15 16 -28 2 -28 -5 0 -10 6 -10 14 0 8 -8 17
-17 19 -14 4 -14 5 -2 6 8 0 20 -4 27 -11z m918 4 c-3 -5 20 -10 51 -11 80 -2
80 -11 0 -11 -72 0 -100 16 -49 29 2 1 1 -3 -2 -7z m217 -13 c-6 -6 -19 -9
-29 -6 -16 4 -15 5 4 6 12 0 22 6 22 13 0 6 3 8 7 5 4 -4 2 -12 -4 -18z m43
-16 c-10 -10 -19 5 -10 18 6 11 8 11 12 0 2 -7 1 -15 -2 -18z m-118 -21 c2 -6
-7 -16 -20 -21 -16 -7 -18 -10 -6 -10 17 -1 34 -19 25 -27 -3 -3 -213 -5 -467
-6 -456 0 -526 4 -459 31 16 7 19 10 7 10 -20 1 -32 17 -23 31 10 16 937 9
943 -8z m-1047 -2 c1 -5 3 -14 4 -20 1 -5 3 -17 4 -25 1 -13 5 -12 24 5 l22
21 5 -31 5 -31 510 0 c483 0 510 1 513 18 7 39 12 47 24 35 20 -20 38 -13 38
13 0 14 5 25 10 25 6 0 10 -9 10 -20 0 -12 7 -20 18 -21 15 -1 15 -2 0 -6 -9
-2 -21 -16 -27 -31 -7 -21 -10 -23 -10 -8 -1 15 -4 17 -13 8 -17 -17 10 -45
39 -39 21 4 23 1 23 -35 0 -35 3 -39 30 -44 34 -7 41 -24 9 -24 -17 0 -19 -3
-10 -14 19 -23 -151 -29 -724 -24 -414 3 -526 7 -539 17 -11 10 -16 31 -16 74
l0 60 22 -19 c12 -10 18 -14 15 -8 -4 7 2 14 13 17 11 3 20 12 20 21 0 9 -6
13 -15 10 -9 -4 -16 3 -21 21 -5 20 -11 25 -25 22 -11 -3 -19 -1 -19 4 0 5 9
9 20 9 11 0 20 7 20 15 0 17 19 21 21 5z"/>
<path d="M1095 1883 c-16 -2 -54 -11 -83 -20 -52 -16 -54 -18 -91 -92 -50
-100 -57 -121 -37 -121 9 0 16 5 16 11 0 5 18 47 39 93 47 97 54 102 189 117
53 6 99 13 101 15 5 5 -92 3 -134 -3z"/>
<path d="M1153 1808 c-114 -11 -133 -20 -133 -60 l0 -33 18 35 c16 34 19 35
72 35 l55 0 20 -52 20 -53 111 0 111 0 20 53 20 52 54 0 c52 0 55 -1 71 -35
l18 -35 0 37 c0 42 -6 44 -138 57 -61 6 -80 4 -91 -7 -16 -16 -127 -13 -139 4
-4 6 -39 6 -89 2z"/>
<path d="M988 1643 c7 -3 16 -2 19 1 4 3 -2 6 -13 5 -11 0 -14 -3 -6 -6z"/>
<path d="M1165 1240 c-3 -5 1 -10 10 -10 9 0 13 5 10 10 -3 6 -8 10 -10 10 -2
0 -7 -4 -10 -10z"/>
<path d="M1028 1113 c-76 -3 -108 -7 -108 -16 0 -9 36 -10 157 -4 87 5 267 7
401 5 133 -2 242 -1 242 3 0 15 -378 21 -692 12z"/>
<path d="M462 1996 c-38 -52 -40 -71 -10 -87 19 -10 26 -7 61 30 52 56 66 48
23 -14 -20 -27 -33 -51 -31 -53 10 -11 34 10 63 53 25 37 29 52 21 66 -16 30
-45 22 -83 -23 -46 -54 -59 -41 -18 17 36 51 37 55 19 55 -8 0 -28 -20 -45
-44z"/>
<path d="M2107 1964 c-8 -8 1 -24 14 -24 5 0 9 7 9 15 0 15 -12 20 -23 9z"/>
<path d="M2248 1934 c-3 -3 7 -28 22 -57 16 -28 26 -55 24 -59 -10 -16 -35 -7
-46 17 -6 14 -15 25 -19 25 -13 0 -22 -81 -10 -93 8 -8 11 -6 11 6 0 13 6 16
24 11 32 -8 66 12 66 37 0 21 -50 119 -61 119 -3 0 -8 -2 -11 -6z"/>
<path d="M345 1794 c-32 -71 -33 -75 -19 -81 15 -5 67 118 55 130 -6 6 -20
-12 -36 -49z"/>
<path d="M386 1764 c-29 -62 -31 -74 -15 -74 10 0 59 100 59 120 0 26 -21 4
-44 -46z"/>
<path d="M436 1755 c-27 -60 -32 -85 -17 -85 15 0 63 122 52 133 -7 7 -19 -10
-35 -48z"/>
<path d="M2260 1675 c0 -9 6 -12 15 -9 8 4 12 10 9 15 -8 14 -24 10 -24 -6z"/>
<path d="M280 1616 c0 -8 19 -30 41 -49 l42 -34 -46 -18 c-45 -17 -75 -40 -65
-50 2 -3 34 7 71 22 46 18 67 32 67 43 0 18 -82 100 -100 100 -5 0 -10 -6 -10
-14z"/>
<path d="M2320 1601 c-27 -8 -31 -35 -16 -114 7 -35 9 -37 47 -37 22 0 49 5
60 11 18 9 20 17 14 62 -4 29 -11 60 -17 70 -9 18 -43 21 -88 8z m78 -63 c10
-50 8 -54 -35 -63 -31 -6 -32 -6 -38 39 -9 54 -2 66 35 66 26 0 30 -4 38 -42z"/>
<path d="M282 1213 c2 -10 12 -18 23 -18 11 0 21 8 23 18 3 13 -3 17 -23 17
-20 0 -26 -4 -23 -17z m38 -3 c0 -5 -7 -10 -15 -10 -8 0 -15 5 -15 10 0 6 7
10 15 10 8 0 15 -4 15 -10z"/>
<path d="M2380 1221 c24 -7 24 -7 5 -19 l-20 -13 20 3 c29 5 25 33 -5 35 l-25
2 25 -8z"/>
<path d="M300 1140 c-24 -15 -7 -19 20 -5 15 8 19 14 10 14 -8 1 -22 -3 -30
-9z"/>
<path d="M2390 1142 c0 -7 -12 -13 -27 -13 -26 -2 -26 -2 -4 -6 24 -5 50 11
38 24 -4 3 -7 1 -7 -5z"/>
<path d="M343 1065 c-9 -10 -8 -14 8 -18 20 -5 24 0 11 19 -5 9 -10 8 -19 -1z"/>
<path d="M2336 1066 c3 -9 13 -16 22 -16 8 0 13 1 11 3 -2 1 -12 9 -22 16 -15
12 -17 12 -11 -3z"/>
<path d="M2300 988 c0 -7 12 -14 26 -14 28 -2 28 -1 -3 15 -18 9 -23 9 -23 -1z"/>
<path d="M346 975 c4 -8 7 -15 9 -15 1 0 8 7 15 15 10 13 9 15 -8 15 -15 0
-20 -5 -16 -15z"/>
<path d="M385 920 c-16 -7 -17 -9 -3 -9 9 -1 20 4 23 9 7 11 7 11 -20 0z"/>
<path d="M2271 918 c-1 -21 15 -32 25 -17 4 8 9 7 15 -2 7 -11 9 -10 9 4 0 19
-30 24 -31 5 0 -7 -4 -4 -9 7 -7 16 -9 17 -9 3z"/>
<path d="M404 866 c-16 -13 -17 -17 -5 -28 12 -11 13 -11 6 0 -4 8 0 19 11 27
11 8 16 15 13 15 -3 0 -14 -6 -25 -14z"/>
<path d="M439 793 c-13 -15 -12 -15 9 -4 23 12 28 21 13 21 -5 0 -15 -7 -22
-17z"/>
<path d="M2206 801 c-5 -7 -1 -18 10 -26 24 -18 31 -18 37 -1 4 11 1 13 -10 9
-12 -5 -14 -3 -8 7 5 8 4 11 -3 6 -5 -3 -12 -1 -14 6 -3 9 -6 9 -12 -1z"/>
<path d="M474 748 c-10 -12 -14 -18 -7 -15 6 4 13 0 15 -8 3 -15 5 -15 23 0
15 11 16 14 3 9 -13 -4 -15 -1 -11 15 7 27 1 26 -23 -1z"/>
<path d="M2176 738 c4 -11 1 -18 -7 -19 -8 0 -3 -5 10 -10 32 -13 35 -7 11 22
-13 16 -18 18 -14 7z"/>
<path d="M524 675 c-7 -18 3 -35 21 -35 15 0 28 27 19 41 -8 14 -34 11 -40 -6z
m34 -7 c-6 -18 -28 -21 -28 -4 0 9 7 16 16 16 9 0 14 -5 12 -12z"/>
<path d="M2082 605 c10 -23 12 -23 24 -7 10 14 10 18 -4 24 -29 11 -32 9 -20
-17z"/>
<path d="M2019 573 c-7 -10 -9 -15 -4 -10 4 4 18 -1 29 -10 21 -18 21 -18 3 3
-9 11 -14 24 -10 27 3 4 4 7 1 7 -3 0 -12 -8 -19 -17z"/>
<path d="M1981 516 c7 -15 15 -23 17 -16 3 7 -3 19 -13 28 -15 16 -16 15 -4
-12z"/>
<path d="M1956 505 c4 -8 11 -15 16 -15 6 0 5 6 -2 15 -7 8 -14 15 -16 15 -2
0 -1 -7 2 -15z"/>
<path d="M730 495 c-11 -13 -11 -18 0 -28 10 -10 11 -9 5 2 -6 11 -4 13 10 7
16 -6 16 -4 4 11 -12 15 -12 16 4 10 11 -4 16 -3 12 3 -9 14 -21 12 -35 -5z"/>
<path d="M1897 456 c5 -22 8 -23 24 -13 18 11 18 13 2 25 -25 18 -31 15 -26
-12z"/>
<path d="M865 410 c5 -16 3 -19 -12 -14 -15 5 -16 4 -3 -5 23 -16 33 -13 27 9
-3 10 0 21 7 24 6 2 3 5 -7 5 -14 1 -17 -4 -12 -19z"/>
<path d="M1767 414 c-11 -11 13 -44 31 -43 10 0 12 3 4 6 -6 2 -10 9 -6 14 3
5 0 9 -6 9 -6 0 -8 5 -5 10 7 11 -8 14 -18 4z"/>
<path d="M928 382 c-4 -15 -2 -19 8 -15 8 3 14 -1 14 -8 0 -11 3 -11 10 1 13
20 13 33 -1 24 -6 -3 -15 -1 -19 6 -5 8 -9 5 -12 -8z"/>
<path d="M1710 376 c0 -10 -6 -13 -15 -10 -18 7 -21 -21 -3 -32 7 -4 8 -3 4 4
-6 11 6 16 27 13 11 -2 9 27 -3 34 -5 3 -10 -1 -10 -9z"/>
<path d="M1006 354 c-3 -9 -4 -20 0 -25 7 -12 44 -12 44 0 0 5 -6 8 -12 7 -7
0 -13 4 -13 9 0 6 6 9 12 9 7 -1 10 2 7 7 -9 14 -31 10 -38 -7z"/>
<path d="M1608 331 c-3 -23 -1 -28 7 -21 7 5 15 7 18 3 13 -12 7 12 -7 30 -13
16 -14 15 -18 -12z"/>
<path d="M1098 327 c-4 -20 -1 -23 14 -19 10 2 18 12 16 20 -5 25 -25 25 -30
-1z"/>
<path d="M1446 333 c-10 -10 -7 -41 6 -49 6 -4 8 -3 4 4 -3 5 0 13 6 15 9 4 8
6 -2 6 -12 1 -13 3 -1 10 7 5 9 11 3 14 -5 4 -12 4 -16 0z"/>
<path d="M1521 313 c-1 -18 4 -23 22 -22 15 1 17 3 5 6 -9 2 -19 12 -21 21 -3
12 -5 10 -6 -5z"/>
<path d="M1373 313 c18 -5 23 -18 8 -27 -5 -4 -12 0 -14 6 -3 8 -6 6 -6 -4 -1
-22 25 -24 33 -2 8 21 -1 34 -22 33 -15 -1 -15 -2 1 -6z"/>
<path d="M1238 293 c7 -3 16 -2 19 1 4 3 -2 6 -13 5 -11 0 -14 -3 -6 -6z"/>
</g>
</svg>
